<?xml version="1.0" encoding="UTF-8"?>
<svg width="120px" height="120px" viewBox="0 0 120 120" xmlns="http://www.w3.org/2000/svg" xmlns:xlink="http://www.w3.org/1999/xlink" version="1.1">
 <path id="path" d="M120 60 C120 93.137 93.137 120 60 120 26.863 120 0 93.137 0 60 0 26.863 26.863 0 60 0 93.137 0 120 26.863 120 60 Z" fill="#162740" fill-opacity="1" stroke="none"/>
 <path id="path-1" d="M27.3 96 C23.7 95.9 21.1 94.9 19.3 93 17.5 91.1 16.6 88.1 16.6 83.8 L16.6 71.3 C16.6 64.7 14.4 61 10.1 60.4 L10.1 57.7 C14.5 57.1 16.6 53.7 16.6 47.5 L16.6 34.4 C16.6 30.1 17.5 27.1 19.3 25.2 21.1 23.3 23.8 22.3 27.3 22.2 L27.3 25.7 C24.8 25.8 23.1 26.6 22.1 28.1 21.1 29.6 20.6 32.1 20.6 35.6 L20.6 47.9 C20.6 54.1 18.6 57.8 14.5 59.1 L14.5 59.3 C18.6 60.6 20.6 64.5 20.6 71.1 L20.6 82.7 C20.6 86.3 21.1 88.8 22.1 90.2 23.1 91.7 24.8 92.5 27.3 92.6 L27.3 96 Z" fill="#3c91cf" fill-opacity="1" stroke="none"/>
 <path id="path-2" d="M110.9 60.4 C106.6 61 104.4 64.7 104.4 71.3 L104.4 83.8 C104.4 88.1 103.5 91.1 101.7 93 99.9 94.9 97.2 95.9 93.7 96 L93.7 92.5 C96 92.4 97.7 91.6 98.8 90.3 99.9 89 100.4 86.4 100.4 82.6 L100.4 71 C100.4 64.4 102.4 60.5 106.5 59.2 L106.5 59 C102.4 57.7 100.4 54 100.4 47.8 L100.4 35.6 C100.4 31.8 99.9 29.3 98.8 27.9 97.7 26.6 96 25.8 93.7 25.7 L93.7 22.2 C97.3 22.3 99.9 23.3 101.7 25.2 103.5 27.1 104.4 30.1 104.4 34.4 L104.4 47.6 C104.4 53.8 106.6 57.2 110.9 57.8 L110.9 60.4 Z" fill="#3c91cf" fill-opacity="1" stroke="none"/>
 <defs>
  <text id="string" transform="matrix(1.0 0.0 0.0 1.0 34.0 9.0)">
   <tspan x="1.1328125" y="45.0" font-family="DINAlternate-Bold, DIN Alternate" font-size="48" text-decoration="none">C</tspan>
   <tspan x="27.828125" y="45.0" font-family="DINAlternate-Bold, DIN Alternate" font-size="48" text-decoration="none">#</tspan>
  </text>
 </defs>
 <defs>
  <linearGradient id="linear-gradient" gradientUnits="userSpaceOnUse" x1="60.475" y1="4.978" x2="60.475" y2="69.114">
   <stop offset="0.001" stop-color="#f0a2b7" stop-opacity="1"/>
   <stop offset="1" stop-color="#ff857a" stop-opacity="1"/>
  </linearGradient>
 </defs>
 <use id="c#" xlink:href="#string" fill="url(#linear-gradient)" fill-opacity="1" stroke="none"/>
 <defs>
  <text id="string-1" transform="matrix(1.0 0.0 0.0 1.0 30.0 58.0)">
   <tspan x="12.5927734375" y="19.0" font-family="DINAlternate-Bold, DIN Alternate" font-size="20" text-decoration="none">S</tspan>
   <tspan x="24.0673828125" y="19.0" font-family="DINAlternate-Bold, DIN Alternate" font-size="20" text-decoration="none">o</tspan>
   <tspan x="34.0673828125" y="19.0" font-family="DINAlternate-Bold, DIN Alternate" font-size="20" text-decoration="none">r</tspan>
   <tspan x="41.8505859375" y="19.0" font-family="DINAlternate-Bold, DIN Alternate" font-size="20" text-decoration="none">t</tspan>
   <tspan x="1.142578125" y="43.0" font-family="DINAlternate-Bold, DIN Alternate" font-size="20" text-decoration="none">U</tspan>
   <tspan x="13.740234375" y="43.0" font-family="DINAlternate-Bold, DIN Alternate" font-size="20" text-decoration="none">s</tspan>
   <tspan x="23.33984375" y="43.0" font-family="DINAlternate-Bold, DIN Alternate" font-size="20" text-decoration="none">i</tspan>
   <tspan x="28.134765625" y="43.0" font-family="DINAlternate-Bold, DIN Alternate" font-size="20" text-decoration="none">n</tspan>
   <tspan x="38.876953125" y="43.0" font-family="DINAlternate-Bold, DIN Alternate" font-size="20" text-decoration="none">g</tspan>
   <tspan x="49.2578125" y="43.0" font-family="DINAlternate-Bold, DIN Alternate" font-size="20" text-decoration="none">s</tspan>
  </text>
 </defs>
 <defs>
  <linearGradient id="linear-gradient-1" gradientUnits="userSpaceOnUse" x1="54" y1="98.387" x2="54" y2="63.912">
   <stop offset="0" stop-color="#e1e1e1" stop-opacity="1"/>
   <stop offset="1" stop-color="#ffffff" stop-opacity="1"/>
  </linearGradient>
 </defs>
 <use id="sort-usings" xlink:href="#string-1" fill="url(#linear-gradient-1)" fill-opacity="1" stroke="none"/>
</svg>
